<svg width="50" height="50" viewBox="0 0 50 50" fill="none" xmlns="http://www.w3.org/2000/svg">
<circle cx="25" cy="25" r="25" fill="#A606AC"/>
<path d="M33.6953 9.62305C34.6432 9.62305 35.4043 9.92383 35.9785 10.5254C36.5618 11.127 36.8535 11.9154 36.8535 12.8906V16.5273H13.1328V12.8906C13.1328 11.9154 13.4245 11.127 14.0078 10.5254C14.5911 9.92383 15.3568 9.62305 16.3047 9.62305H33.6953ZM18.082 14.9688C18.4193 14.9688 18.7064 14.8457 18.9434 14.5996C19.1895 14.3535 19.3125 14.0618 19.3125 13.7246C19.3125 13.3783 19.1895 13.082 18.9434 12.8359C18.7064 12.5898 18.4193 12.4668 18.082 12.4668C17.7357 12.4668 17.4395 12.5898 17.1934 12.8359C16.9564 13.082 16.8379 13.3783 16.8379 13.7246C16.8379 14.0618 16.9564 14.3535 17.1934 14.5996C17.4395 14.8457 17.7357 14.9688 18.082 14.9688ZM21.6777 14.9688C22.015 14.9688 22.3021 14.8457 22.5391 14.5996C22.7852 14.3535 22.9082 14.0618 22.9082 13.7246C22.9082 13.3783 22.7852 13.082 22.5391 12.8359C22.3021 12.5898 22.015 12.4668 21.6777 12.4668C21.3314 12.4668 21.0397 12.5898 20.8027 12.8359C20.5658 13.082 20.4473 13.3783 20.4473 13.7246C20.4473 14.0618 20.5658 14.3535 20.8027 14.5996C21.0397 14.8457 21.3314 14.9688 21.6777 14.9688ZM29.3203 14.4355H32.6836C32.9023 14.4355 33.0755 14.3717 33.2031 14.2441C33.3307 14.1074 33.3945 13.9342 33.3945 13.7246C33.3945 13.5059 33.3307 13.3327 33.2031 13.2051C33.0755 13.0684 32.9023 13 32.6836 13H29.3203C29.1107 13 28.9421 13.0684 28.8145 13.2051C28.6868 13.3327 28.623 13.5059 28.623 13.7246C28.623 13.9342 28.6868 14.1074 28.8145 14.2441C28.9421 14.3717 29.1107 14.4355 29.3203 14.4355ZM16.3047 38.334C15.3568 38.334 14.5911 38.0332 14.0078 37.4316C13.4245 36.8392 13.1328 36.0553 13.1328 35.0801V18.3867H36.8535V27.3828C36.7168 27.3372 36.5482 27.2962 36.3477 27.2598C36.1471 27.2233 35.9238 27.2051 35.6777 27.2051C35.1673 27.2051 34.7025 27.2871 34.2832 27.4512C33.873 27.6152 33.5176 27.7793 33.2168 27.9434C32.9251 28.1074 32.6973 28.1895 32.5332 28.1895C32.4967 28.1895 32.4648 28.1895 32.4375 28.1895C32.4193 28.1895 32.3965 28.1849 32.3691 28.1758C32.3691 28.1211 32.3691 28.0664 32.3691 28.0117C32.3783 27.957 32.3828 27.9069 32.3828 27.8613C32.3828 26.8405 32.1914 25.8835 31.8086 24.9902C31.4258 24.097 30.8926 23.3132 30.209 22.6387C29.5345 21.9551 28.7507 21.4219 27.8574 21.0391C26.9642 20.6562 26.0117 20.4648 25 20.4648C23.9792 20.4648 23.0221 20.6562 22.1289 21.0391C21.2357 21.4219 20.4473 21.9551 19.7637 22.6387C19.0892 23.3132 18.5605 24.097 18.1777 24.9902C17.7949 25.8835 17.6035 26.8405 17.6035 27.8613C17.6035 28.8822 17.7949 29.8392 18.1777 30.7324C18.5605 31.6257 19.0892 32.4095 19.7637 33.084C20.4473 33.7585 21.2357 34.2871 22.1289 34.6699C23.0221 35.0527 23.9792 35.2441 25 35.2441C25.082 35.2441 25.1686 35.2441 25.2598 35.2441C25.36 35.2441 25.4512 35.2396 25.5332 35.2305L26.4902 37.8008C26.5267 37.8919 26.5677 37.9831 26.6133 38.0742C26.6589 38.1654 26.7044 38.252 26.75 38.334H16.3047ZM19.1348 27.8613C19.1348 26.7767 19.3945 25.7923 19.9141 24.9082C20.4427 24.0241 21.1491 23.3177 22.0332 22.7891C22.9264 22.2604 23.9154 21.9961 25 21.9961C25.9753 21.9961 26.8685 22.2148 27.6797 22.6523C28.5 23.0807 29.1836 23.6686 29.7305 24.416C30.2773 25.1543 30.6237 25.9883 30.7695 26.918C30.7786 27.0182 30.7878 27.123 30.7969 27.2324C30.806 27.3327 30.8105 27.4329 30.8105 27.5332C30.5827 27.4329 30.3457 27.3555 30.0996 27.3008C29.8626 27.237 29.6211 27.2051 29.375 27.2051C29.0286 27.2051 28.7142 27.2415 28.4316 27.3145C28.1582 27.3783 27.9121 27.4557 27.6934 27.5469C27.3561 27.2279 26.9551 27.0273 26.4902 26.9453C26.0345 26.8542 25.5879 26.8861 25.1504 27.041C24.7311 27.196 24.3802 27.4421 24.0977 27.7793C23.8242 28.1165 23.6465 28.5085 23.5645 28.9551C23.4915 29.3926 23.5417 29.8483 23.7148 30.3223L24.9727 33.7129C24.2435 33.722 23.528 33.5853 22.8262 33.3027C22.1335 33.0111 21.5091 32.6055 20.9531 32.0859C20.3971 31.5573 19.9551 30.9329 19.627 30.2129C19.2988 29.4928 19.1348 28.709 19.1348 27.8613ZM32.5332 31.1152C32.0137 31.1152 31.5944 31.0286 31.2754 30.8555C30.9655 30.6823 30.6738 30.5137 30.4004 30.3496C30.1361 30.1764 29.7988 30.0898 29.3887 30.0898C29.0332 30.0898 28.7279 30.1628 28.4727 30.3086C28.2266 30.4453 27.9577 30.5957 27.666 30.7598C27.3743 30.9147 26.9961 31.0195 26.5312 31.0742L26.4355 29.8301C26.7819 29.7663 27.0918 29.6523 27.3652 29.4883C27.6478 29.3242 27.944 29.1693 28.2539 29.0234C28.5729 28.8776 28.9512 28.8047 29.3887 28.8047C29.9082 28.8047 30.332 28.8913 30.6602 29.0645C30.9883 29.2285 31.2891 29.3971 31.5625 29.5703C31.8451 29.7435 32.1686 29.8301 32.5332 29.8301C32.8887 29.8301 33.2031 29.7435 33.4766 29.5703C33.7591 29.3971 34.0645 29.2285 34.3926 29.0645C34.7298 28.8913 35.1536 28.8047 35.6641 28.8047C36.1107 28.8047 36.4889 28.8776 36.7988 29.0234C37.1087 29.1693 37.4049 29.3242 37.6875 29.4883C37.9701 29.6523 38.2799 29.7663 38.6172 29.8301L38.5215 31.0742C38.0566 31.0195 37.6784 30.9147 37.3867 30.7598C37.1042 30.5957 36.8353 30.4453 36.5801 30.3086C36.3249 30.1628 36.0195 30.0898 35.6641 30.0898C35.263 30.0898 34.9258 30.1764 34.6523 30.3496C34.3789 30.5137 34.0872 30.6823 33.7773 30.8555C33.4674 31.0286 33.0527 31.1152 32.5332 31.1152ZM29.5527 38.3613C29.2064 38.3613 28.8919 38.2656 28.6094 38.0742C28.3268 37.8828 28.1217 37.6048 27.9941 37.2402L25.2188 29.7617C25.1094 29.4609 25.1094 29.2012 25.2188 28.9824C25.3372 28.7637 25.5013 28.6178 25.7109 28.5449C25.9206 28.4629 26.1393 28.4674 26.3672 28.5586C26.6042 28.6406 26.7773 28.832 26.8867 29.1328L29.5254 36.2012C29.571 36.3288 29.6348 36.4199 29.7168 36.4746C29.7988 36.5384 29.8945 36.5703 30.0039 36.5703H35.0488C35.1582 36.5703 35.2539 36.5384 35.3359 36.4746C35.418 36.4199 35.4818 36.3288 35.5273 36.2012L38.166 29.1328C38.2754 28.832 38.4486 28.6406 38.6855 28.5586C38.9225 28.4674 39.1458 28.4629 39.3555 28.5449C39.5651 28.6178 39.7246 28.7637 39.834 28.9824C39.9525 29.2012 39.957 29.4609 39.8477 29.7617L37.0723 37.2402C36.9355 37.6048 36.7259 37.8828 36.4434 38.0742C36.1608 38.2656 35.8464 38.3613 35.5 38.3613H29.5527Z" fill="white"/>
</svg>
